<svg xmlns="http://www.w3.org/2000/svg" viewBox="0 0 128 128" role="img" aria-labelledby="title desc">
  <title id="title">Rocket obstacle icon</title>
  <desc id="desc">A playful rocket with flame and stars.</desc>
  <defs>
    <linearGradient id="space" x1="0" y1="0" x2="1" y2="1">
      <stop offset="0%" stop-color="#0f172a" />
      <stop offset="100%" stop-color="#312e81" />
    </linearGradient>
    <linearGradient id="body" x1="0" y1="0" x2="0" y2="1">
      <stop offset="0%" stop-color="#f8fafc" />
      <stop offset="100%" stop-color="#cbd5e1" />
    </linearGradient>
    <linearGradient id="fire" x1="0" y1="0" x2="0" y2="1">
      <stop offset="0%" stop-color="#fde047" />
      <stop offset="60%" stop-color="#fb923c" />
      <stop offset="100%" stop-color="#ef4444" />
    </linearGradient>
  </defs>

  <rect x="8" y="8" width="112" height="112" rx="24" fill="url(#space)" />
  <path d="M64 18c11 9 20 28 20 44v22H44V62c0-16 9-35 20-44z" fill="url(#body)" />
  <circle cx="64" cy="56" r="10" fill="#38bdf8" stroke="#0f172a" stroke-width="3" />
  <path d="M44 74l-12 12 12 2zM84 74l12 12-12 2z" fill="#f43f5e" />
  <path d="M54 84h20v10H54z" fill="#64748b" />
  <path d="M64 118c-8-10-8-20 0-30 8 10 8 20 0 30z" fill="url(#fire)" />

  <circle cx="28" cy="30" r="3" fill="#fde68a" />
  <circle cx="98" cy="34" r="2.5" fill="#f9a8d4" />
  <circle cx="100" cy="94" r="3" fill="#93c5fd" />
</svg>
